<svg id="Layer_1" data-name="Layer 1" xmlns="http://www.w3.org/2000/svg" width="366.3" height="72.59" viewBox="0 0 366.3 72.59"><title>TrueMoney logo - Brandlogos.net</title><g id="Logos"><path d="M220,347.7H207v10.78h-6.14v11.93H207v14c0,11,8.88,18,19.86,18h7.68V390.94h-7.72a6.8,6.8,0,0,1-6.8-6.8V370.41l8.54,0a6.23,6.23,0,0,0,6-6.26v-5.64H220V347.7Zm74.77,36.95a6.8,6.8,0,1,1-13.6,0V364.76a6.28,6.28,0,0,0-6.3-6.28H268.1v24.47c0,11,6,19.93,19.86,19.93s19.87-8.92,19.87-19.93V358.48h-13v26.17m58-2.92c-.09-13.59-7.47-24.28-21.2-24.28-11.79,0-21.3,9.52-21.3,22.64,0,14.15,8.65,22.53,21.4,22.78a21.88,21.88,0,0,0,19.21-11.48l-11.93-3.12a8.82,8.82,0,0,1-7.38,3.69c-4.65,0-8.41-3.34-8.54-7.38h29.73c0-.64,0-2.18,0-2.85M323,375.64c.13-4,3.88-7.35,8.54-7.35s8.5,3.27,8.56,7.35Zm-65.57-17.16h-1.77a18.07,18.07,0,0,0-18.07,18.09v25.79h13V377.21a6.78,6.78,0,0,1,6.82-6.8h7.62V358.48h-7.62Z" transform="translate(-200.85 -347.7)" style="fill:#ed1c24"/><path d="M446.52,389.53a9,9,0,0,1-14.53,0c-1.77-2.33-2.75-6.22-2.75-9.77a14.79,14.79,0,0,1,2.75-9.11,8.83,8.83,0,0,1,14.53,0,15,15,0,0,1,2.76,9.11c0,3.54-1,7.44-2.76,9.77m-7.24-32.2a17.47,17.47,0,0,0-13.47,6.56,24.44,24.44,0,0,0-5.56,15.88c0,6.1,2.12,12.46,5.56,16.5a17,17,0,0,0,26.85,0c3.46-4,5.56-10.4,5.56-16.5a24.52,24.52,0,0,0-5.56-15.88,17.54,17.54,0,0,0-13.39-6.56" transform="translate(-200.85 -347.7)" style="fill:#f58220"/><path d="M480.3,357.32a13.79,13.79,0,0,0-10.87,5.84v-.05a6,6,0,0,0-1.32-3.8,4.23,4.23,0,0,0-3.22-1.61,4.1,4.1,0,0,0-3.2,1.65,6.2,6.2,0,0,0-1.28,3.77v34.13a5.53,5.53,0,0,0,1.34,3.68,4.4,4.4,0,0,0,3.21,1.53,4.26,4.26,0,0,0,3.14-1.53,5.48,5.48,0,0,0,1.32-3.68V377.69a12.82,12.82,0,0,1,2.26-7.58,7.82,7.82,0,0,1,6.48-3.27,7.11,7.11,0,0,1,6.09,3.05,13.07,13.07,0,0,1,2.14,7.72v19.63a5.21,5.21,0,0,0,1.34,3.68,4.33,4.33,0,0,0,3.19,1.53,4.2,4.2,0,0,0,3.14-1.53,5.6,5.6,0,0,0,1.31-3.68V377.29c0-5.61-1.35-10.63-4-14.22a13.14,13.14,0,0,0-11.13-5.75" transform="translate(-200.85 -347.7)" style="fill:#f58220"/><path d="M516.33,366.39a8.74,8.74,0,0,1,6.25,2.78,12,12,0,0,1,2.92,6.2H507.15a12.5,12.5,0,0,1,2.9-6.29,8.58,8.58,0,0,1,6.27-2.69m15.93,23h-.06a3.7,3.7,0,0,0-3-1.8,3.09,3.09,0,0,0-2.4,1.08c-2.72,3.09-6.08,5-10,5a9.41,9.41,0,0,1-6.89-3,13.71,13.71,0,0,1-3-7.53H531.1a3.43,3.43,0,0,0,2.39-1,3.83,3.83,0,0,0,1.08-2.69,25.37,25.37,0,0,0-5.17-15.84,16.7,16.7,0,0,0-13.07-6.38A17.35,17.35,0,0,0,503,363.88a24.8,24.8,0,0,0-5.41,15.88c0,6.14,2.11,12.46,5.53,16.5a17.72,17.72,0,0,0,13.48,6.55,20,20,0,0,0,15.13-7.27h0v-.08A5.74,5.74,0,0,0,533,392a5.62,5.62,0,0,0-.7-2.55" transform="translate(-200.85 -347.7)" style="fill:#f58220"/><path d="M567.15,363.24a4.78,4.78,0,0,0-2.65-4.49h0a3,3,0,0,0-1.32-.36,4.07,4.07,0,0,0-3.74,2.91l-9.24,24.53-9.4-24.58A4.05,4.05,0,0,0,537,358.4a4,4,0,0,0-1.58.36h0a5.08,5.08,0,0,0-2.52,4.57,3.59,3.59,0,0,0,.16.9c.33,1.21,1.2,3.77,2.36,6.91,3.3,9.11,8.89,23.32,10,26.37-2.45,6.05-6.42,11-11.83,13.9a5,5,0,0,0-1.76,1.62,4.73,4.73,0,0,0-.74,2.61,4.93,4.93,0,0,0,1.12,3.18,3.47,3.47,0,0,0,2.7,1.47,3.83,3.83,0,0,0,1.48-.45c8.29-3.76,14.1-11.57,17.5-20.63l12.88-34a4.62,4.62,0,0,0,.35-2" transform="translate(-200.85 -347.7)" style="fill:#f58220"/><path d="M404.19,357.3a14,14,0,0,0-12.14,7.44,14.23,14.23,0,0,0-4-5.12A11.31,11.31,0,0,0,381,357.3c-4,0-6.84,2.32-9.12,5.7a5.87,5.87,0,0,0-1.23-3.69,3.93,3.93,0,0,0-3.11-1.64,4.55,4.55,0,0,0-3.44,1.64,6.26,6.26,0,0,0-1.2,3.78v34a6.3,6.3,0,0,0,1.18,3.73,4.33,4.33,0,0,0,3.28,1.6,4.27,4.27,0,0,0,3.29-1.6,5.77,5.77,0,0,0,1.25-3.73V377.69c0-2.94.09-5.65,1.33-7.62a6.71,6.71,0,0,1,5.82-3.2,6,6,0,0,1,5.44,3c1.16,1.83,1.52,4.55,1.52,7.67v19.55c0,2.83,1.83,5.33,4.23,5.33a4.48,4.48,0,0,0,3.33-1.6,6.4,6.4,0,0,0,1.31-3.73V377.25a12.86,12.86,0,0,1,1.83-7.3,6.65,6.65,0,0,1,5.72-3.07,6,6,0,0,1,5.44,3c1.14,1.83,1.18,4.55,1.18,7.67v19.55a6,6,0,0,0,1.22,3.73,4.08,4.08,0,0,0,3.21,1.6,4.5,4.5,0,0,0,3.33-1.6,5.79,5.79,0,0,0,1.24-3.73V377c0-5.7-1-10.55-3.31-14.06a11.6,11.6,0,0,0-10.55-5.66" transform="translate(-200.85 -347.7)" style="fill:#f58220"/></g></svg>